<svg width="960" height="720" viewBox="0 0 960 720" fill="none" xmlns="http://www.w3.org/2000/svg">
<rect width="960" height="720" rx="40" fill="#0F172A"/>
<rect x="28" y="28" width="904" height="664" rx="28" fill="url(#bg)"/>
<rect x="92" y="282" width="172" height="124" rx="24" fill="#132033" stroke="#30435F" stroke-width="2"/>
<rect x="392" y="214" width="176" height="260" rx="28" fill="#1D4ED8"/>
<rect x="696" y="172" width="172" height="92" rx="22" fill="#132033" stroke="#30435F" stroke-width="2"/>
<rect x="696" y="314" width="172" height="92" rx="22" fill="#132033" stroke="#30435F" stroke-width="2"/>
<rect x="696" y="456" width="172" height="92" rx="22" fill="#132033" stroke="#30435F" stroke-width="2"/>
<path d="M126 344H230" stroke="#93C5FD" stroke-width="12" stroke-linecap="round"/>
<path d="M264 344H386" stroke="#F8FAFC" stroke-width="10" stroke-linecap="round"/>
<path d="M360 326L386 344L360 362" stroke="#F8FAFC" stroke-width="8" stroke-linecap="round" stroke-linejoin="round"/>
<circle cx="480" cy="272" r="28" fill="#BFDBFE"/>
<path d="M466 272L476 282L494 262" stroke="#1E3A8A" stroke-width="8" stroke-linecap="round" stroke-linejoin="round"/>
<circle cx="480" cy="344" r="28" fill="#BFDBFE"/>
<path d="M466 344L476 354L494 334" stroke="#1E3A8A" stroke-width="8" stroke-linecap="round" stroke-linejoin="round"/>
<circle cx="480" cy="416" r="28" fill="#BFDBFE"/>
<path d="M466 416L476 426L494 406" stroke="#1E3A8A" stroke-width="8" stroke-linecap="round" stroke-linejoin="round"/>
<path d="M568 220H680" stroke="#F8FAFC" stroke-width="8" stroke-linecap="round"/>
<path d="M568 344H680" stroke="#F8FAFC" stroke-width="8" stroke-linecap="round"/>
<path d="M568 468H680" stroke="#F8FAFC" stroke-width="8" stroke-linecap="round"/>
<path d="M654 202L680 220L654 238" stroke="#F8FAFC" stroke-width="8" stroke-linecap="round" stroke-linejoin="round"/>
<path d="M654 326L680 344L654 362" stroke="#F8FAFC" stroke-width="8" stroke-linecap="round" stroke-linejoin="round"/>
<path d="M654 450L680 468L654 486" stroke="#F8FAFC" stroke-width="8" stroke-linecap="round" stroke-linejoin="round"/>
<path d="M730 220H824" stroke="#FDBA74" stroke-width="10" stroke-linecap="round"/>
<path d="M730 344H812" stroke="#93C5FD" stroke-width="10" stroke-linecap="round"/>
<path d="M730 468H798" stroke="#86EFAC" stroke-width="10" stroke-linecap="round"/>
<rect x="118" y="102" width="120" height="38" rx="19" fill="#111827" stroke="#334155"/>
<rect x="422" y="102" width="120" height="38" rx="19" fill="#111827" stroke="#334155"/>
<rect x="726" y="102" width="120" height="38" rx="19" fill="#111827" stroke="#334155"/>
<path d="M154 122H202" stroke="#93C5FD" stroke-width="8" stroke-linecap="round"/>
<path d="M458 122H506" stroke="#60A5FA" stroke-width="8" stroke-linecap="round"/>
<path d="M762 122H810" stroke="#FDBA74" stroke-width="8" stroke-linecap="round"/>
<defs>
<linearGradient id="bg" x1="480" y1="28" x2="480" y2="692" gradientUnits="userSpaceOnUse">
<stop stop-color="#172554"/>
<stop offset="1" stop-color="#0F172A"/>
</linearGradient>
</defs>
</svg>
