<svg width="960" height="720" viewBox="0 0 960 720" fill="none" xmlns="http://www.w3.org/2000/svg">
<rect width="960" height="720" rx="40" fill="#0F172A"/>
<rect x="28" y="28" width="904" height="664" rx="28" fill="url(#bg)"/>
<rect x="118" y="184" width="250" height="320" rx="30" fill="#132033" stroke="#30435F" stroke-width="2"/>
<rect x="592" y="150" width="250" height="388" rx="30" fill="#132033" stroke="#30435F" stroke-width="2"/>
<rect x="154" y="222" width="178" height="212" rx="22" fill="#E2E8F0"/>
<circle cx="204" cy="274" r="24" fill="#60A5FA"/>
<rect x="238" y="256" width="62" height="38" rx="12" fill="#FB923C"/>
<path d="M186 330H300" stroke="#CBD5E1" stroke-width="10" stroke-linecap="round"/>
<path d="M186 356H278" stroke="#94A3B8" stroke-width="8" stroke-linecap="round"/>
<path d="M398 334H554" stroke="#F8FAFC" stroke-width="10" stroke-linecap="round"/>
<path d="M530 316L554 334L530 352" stroke="#F8FAFC" stroke-width="8" stroke-linecap="round" stroke-linejoin="round"/>
<rect x="398" y="268" width="126" height="132" rx="28" fill="#1D4ED8"/>
<path d="M432 314H490" stroke="#BFDBFE" stroke-width="10" stroke-linecap="round"/>
<path d="M432 338H474" stroke="#93C5FD" stroke-width="8" stroke-linecap="round"/>
<rect x="628" y="188" width="178" height="132" rx="20" fill="#F8FAFC"/>
<circle cx="672" cy="234" r="22" fill="#FB923C"/>
<rect x="708" y="216" width="60" height="36" rx="12" fill="#60A5FA"/>
<path d="M652 276H770" stroke="#CBD5E1" stroke-width="10" stroke-linecap="round"/>
<rect x="628" y="344" width="178" height="132" rx="20" fill="#0B1220" stroke="#334155" stroke-width="2"/>
<path d="M652 372H738" stroke="#FB923C" stroke-width="10" stroke-linecap="round"/>
<path d="M652 398H766" stroke="#475569" stroke-width="8" stroke-linecap="round"/>
<path d="M652 422H730" stroke="#475569" stroke-width="8" stroke-linecap="round"/>
<rect x="146" y="104" width="120" height="38" rx="19" fill="#111827" stroke="#334155"/>
<rect x="650" y="104" width="148" height="38" rx="19" fill="#111827" stroke="#334155"/>
<path d="M182 124H230" stroke="#93C5FD" stroke-width="8" stroke-linecap="round"/>
<path d="M686 124H762" stroke="#FDBA74" stroke-width="8" stroke-linecap="round"/>
<defs>
<linearGradient id="bg" x1="480" y1="28" x2="480" y2="692" gradientUnits="userSpaceOnUse">
<stop stop-color="#172554"/>
<stop offset="1" stop-color="#0F172A"/>
</linearGradient>
</defs>
</svg>
