<svg width="960" height="720" viewBox="0 0 960 720" fill="none" xmlns="http://www.w3.org/2000/svg">
<rect width="960" height="720" rx="40" fill="#0F172A"/>
<rect x="28" y="28" width="904" height="664" rx="28" fill="url(#paint0_linear)"/>
<rect x="338" y="126" width="284" height="468" rx="34" fill="#111827" stroke="#334155" stroke-width="2"/>
<rect x="372" y="166" width="216" height="64" rx="20" fill="#F97316" fill-opacity="0.15" stroke="#FB923C"/>
<path d="M410 198H548" stroke="#FDBA74" stroke-width="12" stroke-linecap="round"/>
<rect x="392" y="268" width="176" height="120" rx="26" fill="#1D4ED8"/>
<circle cx="480" cy="328" r="36" fill="#BFDBFE"/>
<path d="M466 328L476 338L498 316" stroke="#1E3A8A" stroke-width="8" stroke-linecap="round" stroke-linejoin="round"/>
<rect x="392" y="420" width="176" height="122" rx="26" fill="#0B1220" stroke="#334155" stroke-width="2"/>
<path d="M422 458H538" stroke="#93C5FD" stroke-width="10" stroke-linecap="round"/>
<path d="M422 484H510" stroke="#475569" stroke-width="8" stroke-linecap="round"/>
<path d="M422 506H524" stroke="#475569" stroke-width="8" stroke-linecap="round"/>
<rect x="86" y="176" width="190" height="144" rx="28" fill="#132033" stroke="#2B3A52" stroke-width="2"/>
<rect x="116" y="206" width="130" height="80" rx="16" fill="#E2E8F0"/>
<rect x="130" y="224" width="50" height="12" rx="6" fill="#F97316"/>
<rect x="130" y="244" width="84" height="10" rx="5" fill="#CBD5E1"/>
<rect x="130" y="260" width="66" height="10" rx="5" fill="#94A3B8"/>
<rect x="706" y="176" width="170" height="144" rx="28" fill="#132033" stroke="#2B3A52" stroke-width="2"/>
<rect x="732" y="206" width="118" height="80" rx="16" fill="#E2E8F0"/>
<rect x="748" y="222" width="28" height="46" rx="6" fill="#60A5FA"/>
<rect x="784" y="236" width="22" height="32" rx="6" fill="#93C5FD"/>
<rect x="814" y="214" width="20" height="54" rx="6" fill="#F97316"/>
<rect x="104" y="426" width="190" height="144" rx="28" fill="#132033" stroke="#2B3A52" stroke-width="2"/>
<rect x="132" y="458" width="134" height="76" rx="16" fill="#E2E8F0"/>
<rect x="148" y="476" width="48" height="10" rx="5" fill="#60A5FA"/>
<rect x="148" y="494" width="90" height="10" rx="5" fill="#CBD5E1"/>
<rect x="148" y="512" width="74" height="10" rx="5" fill="#94A3B8"/>
<path d="M276 248H338" stroke="#F8FAFC" stroke-width="8" stroke-linecap="round"/>
<path d="M622 248H682" stroke="#F8FAFC" stroke-width="8" stroke-linecap="round"/>
<path d="M294 468H356" stroke="#F8FAFC" stroke-width="8" stroke-linecap="round"/>
<path d="M308 230L338 248L308 266" stroke="#F8FAFC" stroke-width="8" stroke-linecap="round" stroke-linejoin="round"/>
<path d="M650 230L680 248L650 266" stroke="#F8FAFC" stroke-width="8" stroke-linecap="round" stroke-linejoin="round"/>
<path d="M324 450L354 468L324 486" stroke="#F8FAFC" stroke-width="8" stroke-linecap="round" stroke-linejoin="round"/>
<rect x="96" y="112" width="170" height="38" rx="19" fill="#111827" stroke="#334155"/>
<rect x="706" y="112" width="170" height="38" rx="19" fill="#111827" stroke="#334155"/>
<rect x="104" y="602" width="190" height="34" rx="17" fill="#111827" stroke="#334155"/>
<path d="M128 131H202" stroke="#93C5FD" stroke-width="8" stroke-linecap="round"/>
<path d="M738 131H822" stroke="#FDBA74" stroke-width="8" stroke-linecap="round"/>
<path d="M136 619H244" stroke="#86EFAC" stroke-width="8" stroke-linecap="round"/>
<defs>
<linearGradient id="paint0_linear" x1="480" y1="28" x2="480" y2="692" gradientUnits="userSpaceOnUse">
<stop stop-color="#172554"/>
<stop offset="1" stop-color="#0F172A"/>
</linearGradient>
</defs>
</svg>
