<svg width="960" height="720" viewBox="0 0 960 720" fill="none" xmlns="http://www.w3.org/2000/svg">
<rect width="960" height="720" rx="40" fill="#0F172A"/>
<rect x="28" y="28" width="904" height="664" rx="28" fill="url(#bg)"/>
<rect x="108" y="166" width="258" height="388" rx="30" fill="#132033" stroke="#30435F" stroke-width="2"/>
<rect x="386" y="166" width="188" height="388" rx="30" fill="#132033" stroke="#30435F" stroke-width="2"/>
<rect x="594" y="166" width="258" height="388" rx="30" fill="#132033" stroke="#30435F" stroke-width="2"/>

<circle cx="236" cy="304" r="98" fill="#FDBA74"/>
<path d="M190 280C198 260 216 248 236 248C256 248 274 260 282 280" stroke="#1E293B" stroke-width="12" stroke-linecap="round"/>
<circle cx="206" cy="312" r="10" fill="#1E293B"/>
<circle cx="266" cy="312" r="10" fill="#1E293B"/>
<path d="M236 324V362" stroke="#E68A4C" stroke-width="8" stroke-linecap="round"/>
<path d="M204 390C220 404 252 404 268 390" stroke="#1E293B" stroke-width="10" stroke-linecap="round"/>

<path d="M158 224L314 224" stroke="#60A5FA" stroke-width="4" stroke-dasharray="10 8"/>
<path d="M176 312L296 312" stroke="#FB923C" stroke-width="4" stroke-dasharray="10 8"/>
<path d="M188 392L284 392" stroke="#22C55E" stroke-width="4" stroke-dasharray="10 8"/>
<path d="M206 262L206 362" stroke="#A855F7" stroke-width="4" stroke-dasharray="10 8"/>
<path d="M266 262L266 362" stroke="#A855F7" stroke-width="4" stroke-dasharray="10 8"/>
<circle cx="206" cy="312" r="14" stroke="#FB923C" stroke-width="4"/>
<circle cx="266" cy="312" r="14" stroke="#FB923C" stroke-width="4"/>
<circle cx="236" cy="342" r="14" stroke="#60A5FA" stroke-width="4"/>
<circle cx="204" cy="390" r="12" stroke="#22C55E" stroke-width="4"/>
<circle cx="268" cy="390" r="12" stroke="#22C55E" stroke-width="4"/>

<path d="M374 360H386" stroke="#F8FAFC" stroke-width="10" stroke-linecap="round"/>
<path d="M566 360H578" stroke="#F8FAFC" stroke-width="10" stroke-linecap="round"/>
<path d="M372 342L394 360L372 378" stroke="#F8FAFC" stroke-width="8" stroke-linecap="round" stroke-linejoin="round"/>
<path d="M556 342L578 360L556 378" stroke="#F8FAFC" stroke-width="8" stroke-linecap="round" stroke-linejoin="round"/>

<rect x="430" y="224" width="100" height="54" rx="16" fill="#F97316" fill-opacity="0.18" stroke="#FB923C"/>
<rect x="430" y="296" width="100" height="54" rx="16" fill="#60A5FA" fill-opacity="0.18" stroke="#93C5FD"/>
<rect x="430" y="368" width="100" height="54" rx="16" fill="#22C55E" fill-opacity="0.16" stroke="#4ADE80"/>
<path d="M456 250H504" stroke="#FDBA74" stroke-width="10" stroke-linecap="round"/>
<path d="M452 322H508" stroke="#BFDBFE" stroke-width="10" stroke-linecap="round"/>
<path d="M454 394H506" stroke="#86EFAC" stroke-width="10" stroke-linecap="round"/>

<rect x="640" y="230" width="166" height="70" rx="18" fill="#F97316" fill-opacity="0.14" stroke="#FB923C"/>
<rect x="640" y="326" width="166" height="70" rx="18" fill="#1D4ED8" fill-opacity="0.14" stroke="#60A5FA"/>
<rect x="640" y="422" width="166" height="70" rx="18" fill="#22C55E" fill-opacity="0.14" stroke="#4ADE80"/>
<path d="M672 264H774" stroke="#FDBA74" stroke-width="10" stroke-linecap="round"/>
<path d="M672 360H760" stroke="#93C5FD" stroke-width="10" stroke-linecap="round"/>
<path d="M672 456H752" stroke="#86EFAC" stroke-width="10" stroke-linecap="round"/>

<rect x="144" y="98" width="184" height="38" rx="19" fill="#111827" stroke="#334155"/>
<rect x="408" y="98" width="144" height="38" rx="19" fill="#111827" stroke="#334155"/>
<rect x="646" y="98" width="160" height="38" rx="19" fill="#111827" stroke="#334155"/>
<path d="M178 118H254" stroke="#93C5FD" stroke-width="8" stroke-linecap="round"/>
<path d="M442 118H518" stroke="#FDBA74" stroke-width="8" stroke-linecap="round"/>
<path d="M680 118H770" stroke="#86EFAC" stroke-width="8" stroke-linecap="round"/>

<defs>
<linearGradient id="bg" x1="480" y1="28" x2="480" y2="692" gradientUnits="userSpaceOnUse">
<stop stop-color="#172554"/>
<stop offset="1" stop-color="#0F172A"/>
</linearGradient>
</defs>
</svg>
