<svg width="960" height="720" viewBox="0 0 960 720" fill="none" xmlns="http://www.w3.org/2000/svg">
<rect width="960" height="720" rx="40" fill="#0F172A"/>
<rect x="28" y="28" width="904" height="664" rx="28" fill="url(#bg)"/>

<rect x="70" y="110" width="500" height="500" rx="34" fill="#162235" stroke="#30435F" stroke-width="2"/>
<rect x="610" y="110" width="280" height="500" rx="34" fill="#162235" stroke="#30435F" stroke-width="2"/>

<circle cx="320" cy="360" r="152" fill="#FDBA74"/>
<path d="M248 324C260 284 287 262 320 262C353 262 380 284 392 324" stroke="#1E293B" stroke-width="18" stroke-linecap="round"/>
<circle cx="270" cy="364" r="12" fill="#1E293B"/>
<circle cx="370" cy="364" r="12" fill="#1E293B"/>
<path d="M320 378V436" stroke="#E68A4C" stroke-width="10" stroke-linecap="round"/>
<path d="M266 480C286 498 354 498 374 480" stroke="#1E293B" stroke-width="12" stroke-linecap="round"/>

<path d="M190 256L450 256" stroke="#60A5FA" stroke-width="4" stroke-dasharray="12 10"/>
<path d="M226 364L414 364" stroke="#FB923C" stroke-width="4" stroke-dasharray="12 10"/>
<path d="M246 482L394 482" stroke="#22C55E" stroke-width="4" stroke-dasharray="12 10"/>

<circle cx="270" cy="364" r="18" stroke="#FB923C" stroke-width="5"/>
<circle cx="370" cy="364" r="18" stroke="#FB923C" stroke-width="5"/>
<circle cx="320" cy="408" r="18" stroke="#60A5FA" stroke-width="5"/>
<circle cx="266" cy="480" r="16" stroke="#22C55E" stroke-width="5"/>
<circle cx="374" cy="480" r="16" stroke="#22C55E" stroke-width="5"/>

<rect x="118" y="130" width="160" height="40" rx="20" fill="#111827" stroke="#334155"/>
<path d="M150 150H246" stroke="#93C5FD" stroke-width="8" stroke-linecap="round"/>

<path d="M520 252H610" stroke="#F8FAFC" stroke-width="10" stroke-linecap="round"/>
<path d="M582 234L610 252L582 270" stroke="#F8FAFC" stroke-width="8" stroke-linecap="round" stroke-linejoin="round"/>
<path d="M520 364H610" stroke="#F8FAFC" stroke-width="10" stroke-linecap="round"/>
<path d="M582 346L610 364L582 382" stroke="#F8FAFC" stroke-width="8" stroke-linecap="round" stroke-linejoin="round"/>
<path d="M520 482H610" stroke="#F8FAFC" stroke-width="10" stroke-linecap="round"/>
<path d="M582 464L610 482L582 500" stroke="#F8FAFC" stroke-width="8" stroke-linecap="round" stroke-linejoin="round"/>

<rect x="646" y="168" width="208" height="84" rx="22" fill="#F97316" fill-opacity="0.14" stroke="#FB923C"/>
<rect x="646" y="308" width="208" height="84" rx="22" fill="#60A5FA" fill-opacity="0.14" stroke="#93C5FD"/>
<rect x="646" y="448" width="208" height="84" rx="22" fill="#22C55E" fill-opacity="0.14" stroke="#4ADE80"/>

<text x="674" y="206" fill="#FDBA74" font-family="'Noto Sans SC', sans-serif" font-size="22" font-weight="700">眼睛之间的距离</text>
<text x="674" y="232" fill="#CBD5E1" font-family="'Noto Sans SC', sans-serif" font-size="16">看左右眼隔多远</text>

<text x="674" y="346" fill="#BFDBFE" font-family="'Noto Sans SC', sans-serif" font-size="22" font-weight="700">鼻子的位置和长度</text>
<text x="674" y="372" fill="#CBD5E1" font-family="'Noto Sans SC', sans-serif" font-size="16">看鼻梁和鼻尖落点</text>

<text x="674" y="486" fill="#86EFAC" font-family="'Noto Sans SC', sans-serif" font-size="22" font-weight="700">嘴巴的宽度和位置</text>
<text x="674" y="512" fill="#CBD5E1" font-family="'Noto Sans SC', sans-serif" font-size="16">看嘴角离多远、在脸哪一层</text>

<rect x="226" y="554" width="188" height="34" rx="17" fill="#111827" stroke="#334155"/>
<path d="M258 571H382" stroke="#FDBA74" stroke-width="8" stroke-linecap="round"/>

<defs>
<linearGradient id="bg" x1="480" y1="28" x2="480" y2="692" gradientUnits="userSpaceOnUse">
<stop stop-color="#172554"/>
<stop offset="1" stop-color="#0F172A"/>
</linearGradient>
</defs>
</svg>
