<svg width="960" height="720" viewBox="0 0 960 720" fill="none" xmlns="http://www.w3.org/2000/svg">
<rect width="960" height="720" rx="40" fill="#0F172A"/>
<rect x="30" y="30" width="900" height="660" rx="28" fill="url(#paint0_linear)"/>
<rect x="92" y="112" width="210" height="496" rx="28" fill="#132033" stroke="#2B3A52" stroke-width="2"/>
<rect x="374" y="112" width="212" height="496" rx="28" fill="#132033" stroke="#2B3A52" stroke-width="2"/>
<rect x="658" y="112" width="210" height="496" rx="28" fill="#132033" stroke="#2B3A52" stroke-width="2"/>
<rect x="128" y="162" width="138" height="74" rx="20" fill="#F97316" fill-opacity="0.18" stroke="#FB923C"/>
<rect x="128" y="260" width="138" height="74" rx="20" fill="#F97316" fill-opacity="0.18" stroke="#FB923C"/>
<rect x="128" y="358" width="138" height="74" rx="20" fill="#F97316" fill-opacity="0.18" stroke="#FB923C"/>
<path d="M153 198H236" stroke="#FDBA74" stroke-width="12" stroke-linecap="round"/>
<path d="M153 296H220" stroke="#FDBA74" stroke-width="12" stroke-linecap="round"/>
<path d="M153 394H232" stroke="#FDBA74" stroke-width="12" stroke-linecap="round"/>
<circle cx="198" cy="500" r="38" fill="#FDBA74"/>
<path d="M152 584C152 551.967 177.967 526 210 526H210C242.033 526 268 551.967 268 584V608H152V584Z" fill="#2563EB"/>
<rect x="420" y="170" width="120" height="96" rx="24" fill="#1D4ED8"/>
<rect x="420" y="300" width="120" height="96" rx="24" fill="#1D4ED8"/>
<rect x="420" y="430" width="120" height="96" rx="24" fill="#1D4ED8"/>
<rect x="440" y="196" width="80" height="12" rx="6" fill="#BFDBFE"/>
<rect x="440" y="218" width="56" height="10" rx="5" fill="#93C5FD"/>
<rect x="440" y="326" width="80" height="12" rx="6" fill="#BFDBFE"/>
<rect x="440" y="348" width="56" height="10" rx="5" fill="#93C5FD"/>
<rect x="440" y="456" width="80" height="12" rx="6" fill="#BFDBFE"/>
<rect x="440" y="478" width="56" height="10" rx="5" fill="#93C5FD"/>
<path d="M302 198H372" stroke="#F8FAFC" stroke-width="8" stroke-linecap="round"/>
<path d="M302 296H372" stroke="#F8FAFC" stroke-width="8" stroke-linecap="round"/>
<path d="M302 394H372" stroke="#F8FAFC" stroke-width="8" stroke-linecap="round"/>
<path d="M346 180L372 198L346 216" stroke="#F8FAFC" stroke-width="8" stroke-linecap="round" stroke-linejoin="round"/>
<path d="M346 278L372 296L346 314" stroke="#F8FAFC" stroke-width="8" stroke-linecap="round" stroke-linejoin="round"/>
<path d="M346 376L372 394L346 412" stroke="#F8FAFC" stroke-width="8" stroke-linecap="round" stroke-linejoin="round"/>
<path d="M586 348H646" stroke="#F8FAFC" stroke-width="8" stroke-linecap="round"/>
<path d="M620 330L646 348L620 366" stroke="#F8FAFC" stroke-width="8" stroke-linecap="round" stroke-linejoin="round"/>
<rect x="692" y="196" width="144" height="258" rx="34" fill="#0B1220" stroke="#FB923C" stroke-width="2"/>
<path d="M712 226H816" stroke="#FB923C" stroke-width="10" stroke-linecap="round"/>
<path d="M712 248H788" stroke="#475569" stroke-width="8" stroke-linecap="round"/>
<ellipse cx="764" cy="348" rx="48" ry="64" fill="#F97316"/>
<circle cx="742" cy="326" r="8" fill="#0F172A"/>
<circle cx="786" cy="326" r="8" fill="#0F172A"/>
<path d="M744 354H784" stroke="#0F172A" stroke-width="8" stroke-linecap="round"/>
<path d="M716 362L694 342" stroke="#F97316" stroke-width="8" stroke-linecap="round"/>
<path d="M812 362L834 342" stroke="#F97316" stroke-width="8" stroke-linecap="round"/>
<path d="M732 410L716 444" stroke="#F97316" stroke-width="8" stroke-linecap="round"/>
<path d="M796 410L812 444" stroke="#F97316" stroke-width="8" stroke-linecap="round"/>
<rect x="708" y="480" width="112" height="40" rx="20" fill="#F97316" fill-opacity="0.14" stroke="#FB923C"/>
<path d="M734 500H794" stroke="#FDBA74" stroke-width="10" stroke-linecap="round"/>
<defs>
<linearGradient id="paint0_linear" x1="480" y1="30" x2="480" y2="690" gradientUnits="userSpaceOnUse">
<stop stop-color="#172554"/>
<stop offset="1" stop-color="#0F172A"/>
</linearGradient>
</defs>
</svg>
