<svg width="960" height="720" viewBox="0 0 960 720" fill="none" xmlns="http://www.w3.org/2000/svg">
<rect width="960" height="720" rx="40" fill="#0F172A"/>
<rect x="28" y="28" width="904" height="664" rx="28" fill="url(#bg)"/>
<rect x="102" y="198" width="756" height="116" rx="28" fill="#132033" stroke="#30435F" stroke-width="2"/>
<path d="M160 248H800" stroke="#E2E8F0" stroke-width="18" stroke-linecap="round"/>
<rect x="146" y="372" width="140" height="98" rx="22" fill="#F97316" fill-opacity="0.18" stroke="#FB923C"/>
<rect x="298" y="372" width="116" height="98" rx="22" fill="#1D4ED8" fill-opacity="0.18" stroke="#60A5FA"/>
<rect x="426" y="372" width="132" height="98" rx="22" fill="#22C55E" fill-opacity="0.16" stroke="#4ADE80"/>
<rect x="570" y="372" width="118" height="98" rx="22" fill="#A855F7" fill-opacity="0.16" stroke="#C084FC"/>
<rect x="700" y="372" width="114" height="98" rx="22" fill="#F97316" fill-opacity="0.18" stroke="#FB923C"/>
<path d="M186 420H246" stroke="#FDBA74" stroke-width="12" stroke-linecap="round"/>
<path d="M330 420H382" stroke="#93C5FD" stroke-width="12" stroke-linecap="round"/>
<path d="M458 420H526" stroke="#86EFAC" stroke-width="12" stroke-linecap="round"/>
<path d="M600 420H658" stroke="#D8B4FE" stroke-width="12" stroke-linecap="round"/>
<path d="M730 420H784" stroke="#FDBA74" stroke-width="12" stroke-linecap="round"/>
<path d="M296 420L286 420" stroke="#F8FAFC" stroke-width="8" stroke-linecap="round"/>
<path d="M424 420L414 420" stroke="#F8FAFC" stroke-width="8" stroke-linecap="round"/>
<path d="M568 420L558 420" stroke="#F8FAFC" stroke-width="8" stroke-linecap="round"/>
<path d="M698 420L688 420" stroke="#F8FAFC" stroke-width="8" stroke-linecap="round"/>
<rect x="196" y="112" width="568" height="44" rx="22" fill="#111827" stroke="#334155"/>
<path d="M236 134H722" stroke="#94A3B8" stroke-width="8" stroke-linecap="round"/>
<defs>
<linearGradient id="bg" x1="480" y1="28" x2="480" y2="692" gradientUnits="userSpaceOnUse">
<stop stop-color="#172554"/>
<stop offset="1" stop-color="#0F172A"/>
</linearGradient>
</defs>
</svg>
