<svg width="960" height="720" viewBox="0 0 960 720" fill="none" xmlns="http://www.w3.org/2000/svg">
<rect width="960" height="720" rx="40" fill="#0F172A"/>
<rect x="26" y="26" width="908" height="668" rx="28" fill="url(#paint0_linear)"/>
<rect x="120" y="146" width="280" height="410" rx="28" fill="#132033" stroke="#2B3A52" stroke-width="2"/>
<rect x="560" y="146" width="280" height="410" rx="28" fill="#132033" stroke="#2B3A52" stroke-width="2"/>
<rect x="451" y="110" width="58" height="500" rx="29" fill="#1E293B"/>
<rect x="451" y="110" width="58" height="500" rx="29" stroke="#334155" stroke-width="2"/>
<circle cx="260" cy="222" r="44" fill="#FDBA74"/>
<path d="M206 322C206 288.863 232.863 262 266 262H266C299.137 262 326 288.863 326 322V408H206V322Z" fill="#2563EB"/>
<rect x="214" y="408" width="106" height="108" rx="22" fill="#1E3A8A"/>
<rect x="195" y="456" width="146" height="24" rx="12" fill="#334155"/>
<rect x="206" y="452" width="122" height="10" rx="5" fill="#64748B"/>
<circle cx="700" cy="222" r="42" fill="#CBD5E1"/>
<rect x="654" y="268" width="92" height="108" rx="24" fill="#F97316"/>
<rect x="634" y="374" width="132" height="140" rx="28" fill="#EA580C"/>
<rect x="648" y="392" width="104" height="84" rx="18" fill="#FB923C"/>
<circle cx="681" cy="222" r="6" fill="#0F172A"/>
<circle cx="719" cy="222" r="6" fill="#0F172A"/>
<rect x="688" y="242" width="24" height="6" rx="3" fill="#0F172A"/>
<rect x="184" y="430" width="154" height="12" rx="6" fill="#475569"/>
<rect x="622" y="430" width="154" height="12" rx="6" fill="#475569"/>
<rect x="172" y="442" width="180" height="16" rx="8" fill="#334155"/>
<rect x="610" y="442" width="180" height="16" rx="8" fill="#334155"/>
<rect x="170" y="168" width="180" height="116" rx="18" fill="#0B1220" stroke="#334155" stroke-width="2"/>
<rect x="610" y="168" width="180" height="116" rx="18" fill="#0B1220" stroke="#334155" stroke-width="2"/>
<rect x="184" y="184" width="152" height="86" rx="12" fill="#E2E8F0"/>
<rect x="624" y="184" width="152" height="86" rx="12" fill="#E2E8F0"/>
<rect x="198" y="200" width="66" height="14" rx="7" fill="#60A5FA"/>
<rect x="198" y="222" width="96" height="10" rx="5" fill="#94A3B8"/>
<rect x="198" y="238" width="112" height="10" rx="5" fill="#CBD5E1"/>
<rect x="638" y="200" width="66" height="14" rx="7" fill="#FB923C"/>
<rect x="638" y="222" width="96" height="10" rx="5" fill="#94A3B8"/>
<rect x="638" y="238" width="112" height="10" rx="5" fill="#CBD5E1"/>
<path d="M342 180H426C449.196 180 468 198.804 468 222V230" stroke="#F8FAFC" stroke-width="8" stroke-linecap="round"/>
<path d="M618 260H534C510.804 260 492 241.196 492 218V210" stroke="#F8FAFC" stroke-width="8" stroke-linecap="round"/>
<path d="M457 228L469 244L481 228" stroke="#F8FAFC" stroke-width="8" stroke-linecap="round" stroke-linejoin="round"/>
<path d="M503 212L491 196L479 212" stroke="#F8FAFC" stroke-width="8" stroke-linecap="round" stroke-linejoin="round"/>
<rect x="152" y="82" width="238" height="44" rx="22" fill="#111827" stroke="#334155"/>
<rect x="570" y="82" width="238" height="44" rx="22" fill="#111827" stroke="#334155"/>
<path d="M190 104H260" stroke="#93C5FD" stroke-width="10" stroke-linecap="round"/>
<path d="M608 104H678" stroke="#FDBA74" stroke-width="10" stroke-linecap="round"/>
<rect x="314" y="82" width="332" height="44" rx="22" fill="#F97316" fill-opacity="0.12" stroke="#FB923C" stroke-dasharray="8 8"/>
<path d="M420 104H540" stroke="#FDBA74" stroke-width="10" stroke-linecap="round"/>
<defs>
<linearGradient id="paint0_linear" x1="480" y1="26" x2="480" y2="694" gradientUnits="userSpaceOnUse">
<stop stop-color="#172554"/>
<stop offset="1" stop-color="#0F172A"/>
</linearGradient>
</defs>
</svg>
